# 3ds Max Wavefront OBJ Exporter v0.99 - (c)2007 guruware
# File Created: 15.11.2023 16:42:10

mtllib signpostv2.mtl

#
# object Box001
#

v  -0.7500 1.2200 0.0350
v  -0.7500 1.2200 -0.0350
v  0.7500 1.2200 -0.0350
v  0.7500 1.2200 0.0350
v  -0.7500 1.9700 0.0350
v  0.7500 1.9700 0.0350
v  0.7500 1.9700 -0.0350
v  -0.7500 1.9700 -0.0350
v  -0.4850 0.0000 0.0260
v  -0.5150 0.0000 0.0260
v  -0.5300 0.0000 0.0000
v  -0.5150 0.0000 -0.0260
v  -0.4850 0.0000 -0.0260
v  -0.4700 0.0000 -0.0000
v  -0.4850 2.0000 -0.0260
v  -0.4700 2.0000 -0.0000
v  -0.5150 2.0000 -0.0260
v  -0.5300 2.0000 0.0000
v  -0.5150 2.0000 0.0260
v  -0.4850 2.0000 0.0260
v  0.5150 0.0000 0.0260
v  0.4850 0.0000 0.0260
v  0.4700 0.0000 0.0000
v  0.4850 0.0000 -0.0260
v  0.5150 0.0000 -0.0260
v  0.5300 0.0000 -0.0000
v  0.5150 2.0000 -0.0260
v  0.5300 2.0000 -0.0000
v  0.4850 2.0000 -0.0260
v  0.4700 2.0000 0.0000
v  0.4850 2.0000 0.0260
v  0.5150 2.0000 0.0260
# 32 vertices

vn -0.5774 -0.5774 0.5774
vn -0.5774 -0.5774 -0.5774
vn 0.5774 -0.5774 -0.5774
vn 0.5774 -0.5774 0.5774
vn -0.5774 0.5774 0.5774
vn 0.5774 0.5774 0.5774
vn 0.5774 0.5774 -0.5774
vn -0.5774 0.5774 -0.5774
vn 0.3962 -0.6100 0.6862
vn -0.3962 -0.6100 0.6862
vn -0.7924 -0.6100 0.0000
vn -0.3962 -0.6100 -0.6862
vn 0.3962 -0.6100 -0.6862
vn 0.7924 -0.6100 -0.0000
vn 0.3962 0.6100 -0.6862
vn 0.7924 0.6100 -0.0000
vn -0.3962 0.6100 -0.6862
vn -0.7924 0.6100 0.0000
vn -0.3962 0.6100 0.6862
vn 0.3962 0.6100 0.6862
# 20 vertex normals

vt 1.0000 0.0000 0.0000
vt 1.0000 1.0000 0.0000
vt 0.0000 1.0000 0.0000
vt 0.0000 0.0000 0.0000
vt 0.3333 0.0000 -0.0000
vt 0.0833 0.0000 -1.0000
vt 0.2500 0.0000 -1.0000
vt 0.6667 0.0000 0.0000
vt 0.9167 0.0000 1.0000
vt 0.7500 0.0000 1.0000
vt 0.9167 1.0000 1.0000
vt 0.7500 1.0000 1.0000
vt -0.0833 0.0000 1.0000
vt 0.0833 0.0000 1.0000
vt 0.0833 1.0000 1.0000
vt -0.0833 1.0000 1.0000
vt 0.2500 0.0000 1.0000
vt 0.2500 1.0000 1.0000
vt 0.4167 0.0000 1.0000
vt 0.4167 1.0000 1.0000
vt 0.5833 0.0000 1.0000
vt 0.5833 1.0000 1.0000
vt 0.6667 1.0000 -0.0000
vt 0.2500 1.0000 -1.0000
vt 0.0833 1.0000 -1.0000
# 25 texture coords

o Box001
g Box001
usemtl wire_153228214
s 2
f 1/1/1 2/2/2 3/3/3 4/4/4 
s 4
f 5/4/5 6/1/6 7/2/7 8/3/8 
s 8
f 1/4/1 4/1/4 6/2/6 5/3/5 
s 16
f 4/4/4 3/1/3 7/2/7 6/3/6 
s 32
f 3/4/3 2/1/2 8/2/8 7/3/7 
s 64
f 2/4/2 1/1/1 5/2/5 8/3/8 
s 1
f 9/5/9 10/6/10 11/7/11 12/8/12 13/9/13 14/10/14 
s 8
f 14/10/14 13/9/13 15/11/15 16/12/16 
f 13/13/13 12/14/12 17/15/17 15/16/15 
f 12/14/12 11/17/11 18/18/18 17/15/17 
f 11/17/11 10/19/10 19/20/19 18/18/18 
f 10/19/10 9/21/9 20/22/20 19/20/19 
f 9/21/9 14/10/14 16/12/16 20/22/20 
s 1
f 20/22/20 16/12/16 15/11/15 17/23/17 18/24/18 19/25/19 
f 21/5/9 22/6/10 23/7/11 24/8/12 25/9/13 26/10/14 
s 8
f 26/10/14 25/9/13 27/11/15 28/12/16 
f 25/13/13 24/14/12 29/15/17 27/16/15 
f 24/14/12 23/17/11 30/18/18 29/15/17 
f 23/17/11 22/19/10 31/20/19 30/18/18 
f 22/19/10 21/21/9 32/22/20 31/20/19 
f 21/21/9 26/10/14 28/12/16 32/22/20 
s 1
f 32/22/20 28/12/16 27/11/15 29/23/17 30/24/18 31/25/19 
# 22 polygons

